<?xml version="1.0" standalone="no"?>
<!DOCTYPE svg PUBLIC "-//W3C//DTD SVG 20010904//EN"
 "http://www.w3.org/TR/2001/REC-SVG-20010904/DTD/svg10.dtd">
<svg version="1.0" xmlns="http://www.w3.org/2000/svg"
  viewBox="0 0 310.000000 604.000000"
 preserveAspectRatio="xMidYMid meet">

<g transform="translate(0.000000,604.000000) scale(0.100000,-0.100000)"
fill="#000000" stroke="none">
<path d="M1512 5685 c-91 -28 -160 -101 -197 -204 -41 -117 -58 -216 -59 -351
-1 -123 -4 -142 -30 -210 -15 -41 -32 -84 -36 -96 -5 -12 -25 -25 -51 -34
-161 -50 -183 -101 -193 -441 -8 -254 -35 -405 -104 -565 -17 -40 -40 -114
-51 -165 -24 -105 -104 -428 -131 -530 -26 -98 -35 -338 -16 -411 17 -64 58
-136 82 -145 40 -15 41 70 4 149 -17 35 -19 48 -11 71 16 40 26 33 41 -27 13
-55 36 -78 52 -54 4 7 6 24 3 38 -2 14 -9 70 -15 125 -5 55 -16 120 -24 145
-7 25 -11 59 -9 77 3 18 66 155 140 305 74 150 141 293 148 318 8 25 18 86 24
135 6 50 22 145 36 213 14 68 25 132 25 143 0 35 19 20 30 -23 6 -24 20 -79
31 -122 43 -166 36 -261 -30 -408 -35 -77 -64 -174 -88 -293 -14 -71 -18 -138
-17 -320 0 -212 2 -240 27 -359 15 -71 39 -170 53 -220 74 -273 94 -454 76
-695 -18 -223 11 -434 103 -771 19 -69 29 -136 36 -245 9 -160 2 -210 -42
-297 -47 -91 -11 -121 160 -132 80 -6 81 -3 79 225 -1 167 -4 202 -22 249 -26
72 -34 273 -15 425 17 145 17 324 0 460 -13 105 -13 116 9 230 23 125 23 142
0 353 -11 91 -11 142 -1 260 7 81 15 215 18 297 5 148 13 176 40 154 8 -8 12
-52 12 -151 1 -76 3 -142 5 -146 2 -4 9 -75 16 -157 9 -119 8 -173 -2 -260
-17 -149 -16 -282 4 -392 15 -82 15 -103 3 -210 -19 -154 -18 -232 1 -410 21
-196 16 -365 -15 -448 -21 -55 -23 -75 -21 -253 1 -107 4 -200 6 -207 9 -22
25 -23 120 -14 78 8 92 12 112 35 13 15 21 34 18 43 -2 9 -21 57 -40 106 l-35
91 9 139 c7 118 15 167 54 310 91 341 90 335 91 740 1 395 -1 371 74 667 80
314 86 350 85 593 0 282 -17 375 -111 614 -62 158 -66 222 -25 391 36 148 48
181 55 160 8 -22 64 -345 72 -410 10 -85 24 -118 180 -423 80 -157 145 -294
145 -305 0 -11 -9 -48 -20 -82 -11 -34 -20 -88 -20 -119 -1 -31 -5 -76 -10
-101 -16 -84 24 -108 48 -29 8 24 16 50 18 58 3 11 7 11 19 1 21 -17 19 -53
-5 -97 -21 -39 -28 -137 -11 -148 39 -23 133 203 116 278 -3 12 -9 76 -15 142
-5 66 -18 147 -29 180 -40 124 -80 275 -110 413 -17 79 -47 182 -67 230 -78
186 -100 307 -114 607 -14 328 -35 373 -193 415 -38 10 -48 18 -53 39 -3 14
-17 55 -31 91 -23 56 -27 87 -33 225 -11 244 -56 392 -146 475 -73 67 -154 90
-232 65z"/>
</g>
</svg>
