<?xml version="1.0" standalone="no"?>
<!DOCTYPE svg PUBLIC "-//W3C//DTD SVG 20010904//EN"
 "http://www.w3.org/TR/2001/REC-SVG-20010904/DTD/svg10.dtd">
<svg version="1.0" xmlns="http://www.w3.org/2000/svg"
  viewBox="0 0 360.000000 658.000000"
 preserveAspectRatio="xMidYMid meet">

<g transform="translate(0.000000,658.000000) scale(0.100000,-0.100000)"
fill="#000000" stroke="none">
<path d="M1774 5859 c-45 -13 -125 -88 -153 -144 -49 -99 -72 -209 -80 -390
-7 -153 -10 -176 -34 -229 -15 -32 -27 -67 -27 -77 0 -21 -32 -45 -75 -55 -60
-13 -112 -52 -136 -100 -26 -54 -34 -125 -48 -399 -11 -218 -32 -326 -90 -477
-50 -132 -54 -145 -96 -318 -41 -171 -107 -374 -133 -409 -11 -15 -40 -32 -73
-42 -30 -9 -81 -30 -114 -46 -33 -17 -71 -34 -85 -38 -40 -12 -52 -25 -39 -41
14 -17 36 -18 92 -2 24 6 52 8 61 5 15 -6 13 -12 -16 -53 -18 -26 -53 -69 -77
-96 -47 -52 -49 -78 -6 -78 40 0 64 16 140 95 39 40 97 93 131 118 70 53 81
67 118 162 15 39 68 149 118 245 175 337 191 374 207 505 14 105 60 344 70
363 11 19 81 -272 81 -333 -1 -70 -15 -123 -60 -231 -84 -197 -131 -499 -110
-719 13 -145 40 -288 85 -455 77 -286 78 -298 80 -690 1 -398 -1 -380 91 -740
37 -143 47 -200 53 -310 9 -145 5 -166 -48 -284 -25 -54 -22 -85 9 -104 22
-13 185 -33 207 -25 26 10 28 33 24 280 -2 116 -6 153 -23 200 -30 82 -34 234
-13 451 18 180 17 280 -7 449 -10 73 -8 94 12 197 24 121 24 143 1 376 -7 72
-7 144 0 230 5 69 13 202 16 297 4 130 9 173 19 177 22 8 28 -13 30 -104 0
-47 9 -178 19 -292 18 -199 18 -213 1 -376 -18 -168 -18 -169 4 -300 20 -121
21 -139 9 -224 -16 -111 -16 -340 0 -458 6 -46 11 -142 11 -212 0 -106 -4
-140 -24 -205 -21 -70 -24 -98 -25 -270 -2 -223 -1 -223 79 -218 129 9 180 30
180 74 0 10 -15 49 -32 87 -33 69 -33 69 -32 219 2 146 3 156 53 350 98 382
109 472 90 734 -17 245 -7 348 65 637 75 301 87 373 93 565 9 264 -22 464
-100 648 -80 191 -84 251 -32 445 32 122 41 145 48 135 6 -7 57 -281 72 -384
19 -133 23 -146 101 -293 157 -297 194 -371 220 -437 37 -95 47 -108 123 -167
36 -28 100 -84 141 -124 81 -78 123 -102 146 -83 21 17 17 43 -12 70 -35 33
-114 137 -114 150 0 8 13 9 43 4 74 -15 121 -12 125 7 2 11 -8 20 -35 28 -21
7 -65 26 -98 43 -33 17 -84 38 -114 46 -68 21 -82 40 -127 166 -34 96 -53 166
-109 400 -15 61 -42 144 -60 185 -65 149 -92 308 -105 602 -13 323 -24 343
-227 413 -7 2 -15 17 -19 32 -4 15 -18 55 -32 88 -22 53 -26 76 -28 195 -4
281 -78 478 -203 542 -57 30 -132 36 -197 17z"/>
</g>
</svg>
